<svg aria-roledescription="er" role="graphics-document document" viewBox="-77.90181732177734 0 929.94677734375 729" style="max-width: 929.947px; background-color: white;" xmlns:xlink="http://www.w3.org/1999/xlink" xmlns="http://www.w3.org/2000/svg" width="100%" id="mermaid-0"><style>#mermaid-0{font-family:"trebuchet ms",verdana,arial,sans-serif;font-size:16px;fill:#000000;}#mermaid-0 .error-icon{fill:#552222;}#mermaid-0 .error-text{fill:#552222;stroke:#552222;}#mermaid-0 .edge-thickness-normal{stroke-width:2px;}#mermaid-0 .edge-thickness-thick{stroke-width:3.5px;}#mermaid-0 .edge-pattern-solid{stroke-dasharray:0;}#mermaid-0 .edge-pattern-dashed{stroke-dasharray:3;}#mermaid-0 .edge-pattern-dotted{stroke-dasharray:2;}#mermaid-0 .marker{fill:#000000;stroke:#000000;}#mermaid-0 .marker.cross{stroke:#000000;}#mermaid-0 svg{font-family:"trebuchet ms",verdana,arial,sans-serif;font-size:16px;}#mermaid-0 .entityBox{fill:#cde498;stroke:#13540c;}#mermaid-0 .attributeBoxOdd{fill:#ffffff;stroke:#13540c;}#mermaid-0 .attributeBoxEven{fill:#f2f2f2;stroke:#13540c;}#mermaid-0 .relationshipLabelBox{fill:hsl(78.1578947368, 58.4615384615%, 84.5098039216%);opacity:0.7;background-color:hsl(78.1578947368, 58.4615384615%, 84.5098039216%);}#mermaid-0 .relationshipLabelBox rect{opacity:0.5;}#mermaid-0 .relationshipLine{stroke:#000000;}#mermaid-0 .entityTitleText{text-anchor:middle;font-size:18px;fill:#000000;}#mermaid-0 :root{--mermaid-font-family:"trebuchet ms",verdana,arial,sans-serif;}</style><g/><defs><marker orient="auto" markerHeight="18" markerWidth="18" refY="9" refX="0" id="ONLY_ONE_START"><path d="M9,0 L9,18 M15,0 L15,18" fill="none" stroke="gray"/></marker></defs><defs><marker orient="auto" markerHeight="18" markerWidth="18" refY="9" refX="18" id="ONLY_ONE_END"><path d="M3,0 L3,18 M9,0 L9,18" fill="none" stroke="gray"/></marker></defs><defs><marker orient="auto" markerHeight="18" markerWidth="30" refY="9" refX="0" id="ZERO_OR_ONE_START"><circle r="6" cy="9" cx="21" fill="white" stroke="gray"/><path d="M9,0 L9,18" fill="none" stroke="gray"/></marker></defs><defs><marker orient="auto" markerHeight="18" markerWidth="30" refY="9" refX="30" id="ZERO_OR_ONE_END"><circle r="6" cy="9" cx="9" fill="white" stroke="gray"/><path d="M21,0 L21,18" fill="none" stroke="gray"/></marker></defs><defs><marker orient="auto" markerHeight="36" markerWidth="45" refY="18" refX="18" id="ONE_OR_MORE_START"><path d="M0,18 Q 18,0 36,18 Q 18,36 0,18 M42,9 L42,27" fill="none" stroke="gray"/></marker></defs><defs><marker orient="auto" markerHeight="36" markerWidth="45" refY="18" refX="27" id="ONE_OR_MORE_END"><path d="M3,9 L3,27 M9,18 Q27,0 45,18 Q27,36 9,18" fill="none" stroke="gray"/></marker></defs><defs><marker orient="auto" markerHeight="36" markerWidth="57" refY="18" refX="18" id="ZERO_OR_MORE_START"><circle r="6" cy="18" cx="48" fill="white" stroke="gray"/><path d="M0,18 Q18,0 36,18 Q18,36 0,18" fill="none" stroke="gray"/></marker></defs><defs><marker orient="auto" markerHeight="36" markerWidth="57" refY="18" refX="39" id="ZERO_OR_MORE_END"><circle r="6" cy="18" cx="9" fill="white" stroke="gray"/><path d="M21,18 Q39,0 57,18 Q39,36 21,18" fill="none" stroke="gray"/></marker></defs><path style="stroke: gray; fill: none;" marker-start="url(#ZERO_OR_MORE_START)" marker-end="url(#ZERO_OR_MORE_END)" d="M46.71697998046875,274.8770083271338L32.158487955729164,283.7308402726115C17.599995930989582,292.5846722180892,-11.516988118489584,310.2923361090446,-26.075480143229168,340.47950138785563C-40.63397216796875,370.6666666666667,-40.63397216796875,413.3333333333333,-40.63397216796875,456C-40.63397216796875,498.6666666666667,-40.63397216796875,541.3333333333334,3.1026814778645835,574.9160685967446C46.839335123697914,608.4988038601558,134.3126424153646,632.9976077203116,178.0492960611979,645.2470096503895L221.78594970703125,657.4964115804675" class="er relationshipLine"/><path style="stroke: gray; fill: none;" marker-start="url(#ZERO_OR_MORE_START)" marker-end="url(#ZERO_OR_MORE_END)" d="M115.57598876953125,278L115.57598876953125,286.3333333333333C115.57598876953125,294.6666666666667,115.57598876953125,311.3333333333333,115.57598876953125,334.75C115.57598876953125,358.1666666666667,115.57598876953125,388.3333333333333,115.57598876953125,403.4166666666667L115.57598876953125,418.5" class="er relationshipLine"/><path style="stroke: gray; fill: none;" marker-start="url(#ZERO_OR_MORE_START)" marker-end="url(#ONLY_ONE_END)" d="M184.43499755859375,255.18898598161496L222.0940284729004,267.3241549846791C259.75305938720703,279.4593239877433,335.0711212158203,303.7296619938716,387.26633326212567,326.7041444425433C439.46154530843097,349.67862689121495,468.5339075724284,371.35725378242995,483.07008870442706,382.1965672280375L497.6062698364258,393.03588067364495" class="er relationshipLine"/><path style="stroke: gray; fill: none;" marker-start="url(#ZERO_OR_MORE_START)" marker-end="url(#ONLY_ONE_END)" d="M81.146484375,88L81.146484375,96.33333333333333C81.146484375,104.66666666666667,81.146484375,121.33333333333333,84.16661633943257,138C87.18674830386514,154.66666666666666,93.22701223273026,171.33333333333334,96.24714419716283,179.66666666666666L99.26727616159539,188" class="er relationshipLine"/><path style="stroke: gray; fill: none;" marker-start="url(#ZERO_OR_MORE_START)" marker-end="url(#ZERO_OR_MORE_END)" d="M357.37330715781764,267L343.1087475826866,277.1666666666667C328.8441880075555,287.3333333333333,300.3150688572934,307.6666666666667,286.0505092821623,339.1666666666667C271.78594970703125,370.6666666666667,271.78594970703125,413.3333333333333,271.78594970703125,456C271.78594970703125,498.6666666666667,271.78594970703125,541.3333333333334,271.78594970703125,571C271.78594970703125,600.6666666666666,271.78594970703125,617.3333333333334,271.78594970703125,625.6666666666666L271.78594970703125,634" class="er relationshipLine"/><path style="stroke: gray; fill: none;" marker-start="url(#ZERO_OR_MORE_START)" marker-end="url(#ONLY_ONE_END)" d="M459.0122604370117,263.7350172732972L477.8078753153483,274.44584772774766C496.6034901936849,285.15667818219816,534.194719950358,306.57833909109905,553.6582416296005,325.62250287888287C573.121763308843,344.6666666666667,574.4575769106547,361.3333333333333,575.1254837115606,369.6666666666667L575.7933905124664,378" class="er relationshipLine"/><path style="stroke: gray; fill: none;" marker-start="url(#ZERO_OR_MORE_START)" marker-end="url(#ONLY_ONE_END)" d="M405.0777359008789,77L405.0777359008789,87.16666666666667C405.0777359008789,97.33333333333333,405.0777359008789,117.66666666666667,405.0777359008789,138C405.0777359008789,158.33333333333334,405.0777359008789,178.66666666666666,405.0777359008789,188.83333333333334L405.0777359008789,199" class="er relationshipLine"/><path style="stroke: gray; fill: none;" marker-start="url(#ZERO_OR_MORE_START)" marker-end="url(#ONLY_ONE_END)" d="M362.2745924450102,77L343.3543623666915,87.16666666666667C324.4341322883727,97.33333333333333,286.5936721317352,117.66666666666667,255.99122949152465,136.16666666666666C225.38878685131408,154.66666666666666,202.0243617275305,171.33333333333334,190.34214916563872,179.66666666666666L178.65993660374693,188" class="er relationshipLine"/><path style="stroke: gray; fill: none;" marker-start="url(#ZERO_OR_MORE_START)" marker-end="url(#ONLY_ONE_END)" d="M455.0777359008789,68.30150060925945L495.69031524658203,79.91791717438288C536.3028945922852,91.5343337395063,617.5280532836914,114.76716686975315,658.1406326293945,142.2169167682099C698.7532119750977,169.66666666666666,698.7532119750977,201.33333333333334,698.7532119750977,233C698.7532119750977,264.6666666666667,698.7532119750977,296.3333333333333,691.155020972093,320.5C683.5568299690882,344.6666666666667,668.3604479630789,361.3333333333333,660.7622569600741,369.6666666666667L653.1640659570694,378" class="er relationshipLine"/><path style="stroke: gray; fill: none;" marker-start="url(#ZERO_OR_MORE_START)" marker-end="url(#ZERO_OR_MORE_END)" d="M582.0449981689453,534L582.0449981689453,542.3333333333334C582.0449981689453,550.6666666666666,582.0449981689453,567.3333333333334,582.0449981689453,584C582.0449981689453,600.6666666666666,582.0449981689453,617.3333333333334,582.0449981689453,625.6666666666666L582.0449981689453,634" class="er relationshipLine"/><path style="stroke: gray; fill: none;" marker-start="url(#ZERO_OR_MORE_START)" marker-end="url(#ZERO_OR_MORE_END)" d="M497.6062698364258,517.0743314217661L482.18484751383465,528.2286095181385C466.76342519124347,539.3828876145108,435.9205805460612,561.6914438072554,406.6171938578288,581.9586006239045C377.3138071695964,602.2257574405538,349.5498784383138,620.4515148811075,335.66791407267254,629.5643936013845L321.78594970703125,638.6772723216613" class="er relationshipLine"/><path style="stroke: gray; fill: none;" marker-start="url(#ZERO_OR_MORE_START)" marker-end="url(#ZERO_OR_MORE_END)" d="M666.4837265014648,510.0407861328125L685.7439384460449,522.3673217773438C705.004150390625,534.693857421875,743.5245742797852,559.3469287109375,762.7847862243652,580.0067976888021C782.0449981689453,600.6666666666666,782.0449981689453,617.3333333333334,782.0449981689453,625.6666666666666L782.0449981689453,634" class="er relationshipLine"/><g transform="translate(46.71697998046875,188 )" id="entity-habits-59333331-6c3a-54f1-a56e-d211c6383727"><rect height="90" width="137.718017578125" y="0" x="0" class="er entityBox"/><text style="dominant-baseline: middle; text-anchor: middle; font-size: 12px;" transform="translate(68.8590087890625,12)" y="0" x="0" id="text-entity-habits-59333331-6c3a-54f1-a56e-d211c6383727" class="er entityLabel">habits</text><rect height="22" width="54.095550537109375" y="24" x="0" class="er attributeBoxOdd"/><text style="dominant-baseline: middle; font-size: 10.2px;" transform="translate(5,35)" y="0" x="0" id="text-entity-habits-59333331-6c3a-54f1-a56e-d211c6383727-attr-1-type" class="er entityLabel">String</text><rect height="22" width="60.934783935546875" y="24" x="54.095550537109375" class="er attributeBoxOdd"/><text style="dominant-baseline: middle; font-size: 10.2px;" transform="translate(59.095550537109375,35)" y="0" x="0" id="text-entity-habits-59333331-6c3a-54f1-a56e-d211c6383727-attr-1-name" class="er entityLabel">id</text><rect height="22" width="22.68768310546875" y="24" x="115.03033447265625" class="er attributeBoxOdd"/><text style="dominant-baseline: middle; font-size: 10.2px;" transform="translate(120.03033447265625,35)" y="0" x="0" id="text-entity-habits-59333331-6c3a-54f1-a56e-d211c6383727-attr-1-key" class="er entityLabel">PK</text><rect height="22" width="54.095550537109375" y="46" x="0" class="er attributeBoxEven"/><text style="dominant-baseline: middle; font-size: 10.2px;" transform="translate(5,57)" y="0" x="0" id="text-entity-habits-59333331-6c3a-54f1-a56e-d211c6383727-attr-2-type" class="er entityLabel">String</text><rect height="22" width="60.934783935546875" y="46" x="54.095550537109375" class="er attributeBoxEven"/><text style="dominant-baseline: middle; font-size: 10.2px;" transform="translate(59.095550537109375,57)" y="0" x="0" id="text-entity-habits-59333331-6c3a-54f1-a56e-d211c6383727-attr-2-name" class="er entityLabel">title</text><rect height="22" width="22.68768310546875" y="46" x="115.03033447265625" class="er attributeBoxEven"/><text style="dominant-baseline: middle; font-size: 10.2px;" transform="translate(120.03033447265625,57)" y="0" x="0" id="text-entity-habits-59333331-6c3a-54f1-a56e-d211c6383727-attr-2-key" class="er entityLabel"/><rect height="22" width="54.095550537109375" y="68" x="0" class="er attributeBoxOdd"/><text style="dominant-baseline: middle; font-size: 10.2px;" transform="translate(5,79)" y="0" x="0" id="text-entity-habits-59333331-6c3a-54f1-a56e-d211c6383727-attr-3-type" class="er entityLabel">DateTime</text><rect height="22" width="60.934783935546875" y="68" x="54.095550537109375" class="er attributeBoxOdd"/><text style="dominant-baseline: middle; font-size: 10.2px;" transform="translate(59.095550537109375,79)" y="0" x="0" id="text-entity-habits-59333331-6c3a-54f1-a56e-d211c6383727-attr-3-name" class="er entityLabel">created_at</text><rect height="22" width="22.68768310546875" y="68" x="115.03033447265625" class="er attributeBoxOdd"/><text style="dominant-baseline: middle; font-size: 10.2px;" transform="translate(120.03033447265625,79)" y="0" x="0" id="text-entity-habits-59333331-6c3a-54f1-a56e-d211c6383727-attr-3-key" class="er entityLabel"/></g><g transform="translate(20,20 )" id="entity-habitweekdays-c488fb80-c3d4-506f-b902-5c8dc46a0a5a"><rect height="68" width="122.29296875" y="0" x="0" class="er entityBox"/><text style="dominant-baseline: middle; text-anchor: middle; font-size: 12px;" transform="translate(61.146484375,12)" y="0" x="0" id="text-entity-habitweekdays-c488fb80-c3d4-506f-b902-5c8dc46a0a5a" class="er entityLabel">habit_week_days</text><rect height="22" width="39.0484364827474" y="24" x="0" class="er attributeBoxOdd"/><text style="dominant-baseline: middle; font-size: 10.2px;" transform="translate(5,35)" y="0" x="0" id="text-entity-habitweekdays-c488fb80-c3d4-506f-b902-5c8dc46a0a5a-attr-1-type" class="er entityLabel">String</text><rect height="22" width="58.90446980794271" y="24" x="39.0484364827474" class="er attributeBoxOdd"/><text style="dominant-baseline: middle; font-size: 10.2px;" transform="translate(44.0484364827474,35)" y="0" x="0" id="text-entity-habitweekdays-c488fb80-c3d4-506f-b902-5c8dc46a0a5a-attr-1-name" class="er entityLabel">id</text><rect height="22" width="24.340062459309895" y="24" x="97.95290629069011" class="er attributeBoxOdd"/><text style="dominant-baseline: middle; font-size: 10.2px;" transform="translate(102.95290629069011,35)" y="0" x="0" id="text-entity-habitweekdays-c488fb80-c3d4-506f-b902-5c8dc46a0a5a-attr-1-key" class="er entityLabel">PK</text><rect height="22" width="39.0484364827474" y="46" x="0" class="er attributeBoxEven"/><text style="dominant-baseline: middle; font-size: 10.2px;" transform="translate(5,57)" y="0" x="0" id="text-entity-habitweekdays-c488fb80-c3d4-506f-b902-5c8dc46a0a5a-attr-2-type" class="er entityLabel">Int</text><rect height="22" width="58.90446980794271" y="46" x="39.0484364827474" class="er attributeBoxEven"/><text style="dominant-baseline: middle; font-size: 10.2px;" transform="translate(44.0484364827474,57)" y="0" x="0" id="text-entity-habitweekdays-c488fb80-c3d4-506f-b902-5c8dc46a0a5a-attr-2-name" class="er entityLabel">week_day</text><rect height="22" width="24.340062459309895" y="46" x="97.95290629069011" class="er attributeBoxEven"/><text style="dominant-baseline: middle; font-size: 10.2px;" transform="translate(102.95290629069011,57)" y="0" x="0" id="text-entity-habitweekdays-c488fb80-c3d4-506f-b902-5c8dc46a0a5a-attr-2-key" class="er entityLabel"/></g><g transform="translate(351.1432113647461,199 )" id="entity-days-1423ac63-3526-5a52-8359-97be9f67b867"><rect height="68" width="107.86904907226562" y="0" x="0" class="er entityBox"/><text style="dominant-baseline: middle; text-anchor: middle; font-size: 12px;" transform="translate(53.93452453613281,12)" y="0" x="0" id="text-entity-days-1423ac63-3526-5a52-8359-97be9f67b867" class="er entityLabel">days</text><rect height="22" width="54.095550537109375" y="24" x="0" class="er attributeBoxOdd"/><text style="dominant-baseline: middle; font-size: 10.2px;" transform="translate(5,35)" y="0" x="0" id="text-entity-days-1423ac63-3526-5a52-8359-97be9f67b867-attr-1-type" class="er entityLabel">String</text><rect height="22" width="31.0858154296875" y="24" x="54.095550537109375" class="er attributeBoxOdd"/><text style="dominant-baseline: middle; font-size: 10.2px;" transform="translate(59.095550537109375,35)" y="0" x="0" id="text-entity-days-1423ac63-3526-5a52-8359-97be9f67b867-attr-1-name" class="er entityLabel">id</text><rect height="22" width="22.68768310546875" y="24" x="85.18136596679688" class="er attributeBoxOdd"/><text style="dominant-baseline: middle; font-size: 10.2px;" transform="translate(90.18136596679688,35)" y="0" x="0" id="text-entity-days-1423ac63-3526-5a52-8359-97be9f67b867-attr-1-key" class="er entityLabel">PK</text><rect height="22" width="54.095550537109375" y="46" x="0" class="er attributeBoxEven"/><text style="dominant-baseline: middle; font-size: 10.2px;" transform="translate(5,57)" y="0" x="0" id="text-entity-days-1423ac63-3526-5a52-8359-97be9f67b867-attr-2-type" class="er entityLabel">DateTime</text><rect height="22" width="31.0858154296875" y="46" x="54.095550537109375" class="er attributeBoxEven"/><text style="dominant-baseline: middle; font-size: 10.2px;" transform="translate(59.095550537109375,57)" y="0" x="0" id="text-entity-days-1423ac63-3526-5a52-8359-97be9f67b867-attr-2-name" class="er entityLabel">date</text><rect height="22" width="22.68768310546875" y="46" x="85.18136596679688" class="er attributeBoxEven"/><text style="dominant-baseline: middle; font-size: 10.2px;" transform="translate(90.18136596679688,57)" y="0" x="0" id="text-entity-days-1423ac63-3526-5a52-8359-97be9f67b867-attr-2-key" class="er entityLabel"/></g><g transform="translate(355.0777359008789,31 )" id="entity-dayhabits-469d66ca-4756-5919-88f9-7358685a3ac0"><rect height="46" width="100" y="0" x="0" class="er entityBox"/><text style="dominant-baseline: middle; text-anchor: middle; font-size: 12px;" transform="translate(50,12)" y="0" x="0" id="text-entity-dayhabits-469d66ca-4756-5919-88f9-7358685a3ac0" class="er entityLabel">day_habits</text><rect height="22" width="44.39861551920573" y="24" x="0" class="er attributeBoxOdd"/><text style="dominant-baseline: middle; font-size: 10.2px;" transform="translate(5,35)" y="0" x="0" id="text-entity-dayhabits-469d66ca-4756-5919-88f9-7358685a3ac0-attr-1-type" class="er entityLabel">String</text><rect height="22" width="25.911142985026043" y="24" x="44.39861551920573" class="er attributeBoxOdd"/><text style="dominant-baseline: middle; font-size: 10.2px;" transform="translate(49.39861551920573,35)" y="0" x="0" id="text-entity-dayhabits-469d66ca-4756-5919-88f9-7358685a3ac0-attr-1-name" class="er entityLabel">id</text><rect height="22" width="29.69024149576823" y="24" x="70.30975850423177" class="er attributeBoxOdd"/><text style="dominant-baseline: middle; font-size: 10.2px;" transform="translate(75.30975850423177,35)" y="0" x="0" id="text-entity-dayhabits-469d66ca-4756-5919-88f9-7358685a3ac0-attr-1-key" class="er entityLabel">PK</text></g><g transform="translate(497.6062698364258,378 )" id="entity-users-33ae1e26-be31-5c1d-bf65-e859e9d0308e"><rect height="156" width="168.87745666503906" y="0" x="0" class="er entityBox"/><text style="dominant-baseline: middle; text-anchor: middle; font-size: 12px;" transform="translate(84.43872833251953,12)" y="0" x="0" id="text-entity-users-33ae1e26-be31-5c1d-bf65-e859e9d0308e" class="er entityLabel">users</text><rect height="22" width="46.649749755859375" y="24" x="0" class="er attributeBoxOdd"/><text style="dominant-baseline: middle; font-size: 10.2px;" transform="translate(5,35)" y="0" x="0" id="text-entity-users-33ae1e26-be31-5c1d-bf65-e859e9d0308e-attr-1-type" class="er entityLabel">Int</text><rect height="22" width="52.327484130859375" y="24" x="46.649749755859375" class="er attributeBoxOdd"/><text style="dominant-baseline: middle; font-size: 10.2px;" transform="translate(51.649749755859375,35)" y="0" x="0" id="text-entity-users-33ae1e26-be31-5c1d-bf65-e859e9d0308e-attr-1-name" class="er entityLabel">id</text><rect height="22" width="22.68768310546875" y="24" x="98.97723388671875" class="er attributeBoxOdd"/><text style="dominant-baseline: middle; font-size: 10.2px;" transform="translate(103.97723388671875,35)" y="0" x="0" id="text-entity-users-33ae1e26-be31-5c1d-bf65-e859e9d0308e-attr-1-key" class="er entityLabel">PK</text><rect height="22" width="47.21253967285156" y="24" x="121.6649169921875" class="er attributeBoxOdd"/><text style="dominant-baseline: middle; font-size: 10.2px;" transform="translate(126.6649169921875,35)" y="0" x="0" id="text-entity-users-33ae1e26-be31-5c1d-bf65-e859e9d0308e-attr-1-comment" class="er entityLabel"/><rect height="22" width="46.649749755859375" y="46" x="0" class="er attributeBoxEven"/><text style="dominant-baseline: middle; font-size: 10.2px;" transform="translate(5,57)" y="0" x="0" id="text-entity-users-33ae1e26-be31-5c1d-bf65-e859e9d0308e-attr-2-type" class="er entityLabel">String</text><rect height="22" width="52.327484130859375" y="46" x="46.649749755859375" class="er attributeBoxEven"/><text style="dominant-baseline: middle; font-size: 10.2px;" transform="translate(51.649749755859375,57)" y="0" x="0" id="text-entity-users-33ae1e26-be31-5c1d-bf65-e859e9d0308e-attr-2-name" class="er entityLabel">email</text><rect height="22" width="22.68768310546875" y="46" x="98.97723388671875" class="er attributeBoxEven"/><text style="dominant-baseline: middle; font-size: 10.2px;" transform="translate(103.97723388671875,57)" y="0" x="0" id="text-entity-users-33ae1e26-be31-5c1d-bf65-e859e9d0308e-attr-2-key" class="er entityLabel"/><rect height="22" width="47.21253967285156" y="46" x="121.6649169921875" class="er attributeBoxEven"/><text style="dominant-baseline: middle; font-size: 10.2px;" transform="translate(126.6649169921875,57)" y="0" x="0" id="text-entity-users-33ae1e26-be31-5c1d-bf65-e859e9d0308e-attr-2-comment" class="er entityLabel"/><rect height="22" width="46.649749755859375" y="68" x="0" class="er attributeBoxOdd"/><text style="dominant-baseline: middle; font-size: 10.2px;" transform="translate(5,79)" y="0" x="0" id="text-entity-users-33ae1e26-be31-5c1d-bf65-e859e9d0308e-attr-3-type" class="er entityLabel">String</text><rect height="22" width="52.327484130859375" y="68" x="46.649749755859375" class="er attributeBoxOdd"/><text style="dominant-baseline: middle; font-size: 10.2px;" transform="translate(51.649749755859375,79)" y="0" x="0" id="text-entity-users-33ae1e26-be31-5c1d-bf65-e859e9d0308e-attr-3-name" class="er entityLabel">name</text><rect height="22" width="22.68768310546875" y="68" x="98.97723388671875" class="er attributeBoxOdd"/><text style="dominant-baseline: middle; font-size: 10.2px;" transform="translate(103.97723388671875,79)" y="0" x="0" id="text-entity-users-33ae1e26-be31-5c1d-bf65-e859e9d0308e-attr-3-key" class="er entityLabel"/><rect height="22" width="47.21253967285156" y="68" x="121.6649169921875" class="er attributeBoxOdd"/><text style="dominant-baseline: middle; font-size: 10.2px;" transform="translate(126.6649169921875,79)" y="0" x="0" id="text-entity-users-33ae1e26-be31-5c1d-bf65-e859e9d0308e-attr-3-comment" class="er entityLabel">nullable</text><rect height="22" width="46.649749755859375" y="90" x="0" class="er attributeBoxEven"/><text style="dominant-baseline: middle; font-size: 10.2px;" transform="translate(5,101)" y="0" x="0" id="text-entity-users-33ae1e26-be31-5c1d-bf65-e859e9d0308e-attr-4-type" class="er entityLabel">String</text><rect height="22" width="52.327484130859375" y="90" x="46.649749755859375" class="er attributeBoxEven"/><text style="dominant-baseline: middle; font-size: 10.2px;" transform="translate(51.649749755859375,101)" y="0" x="0" id="text-entity-users-33ae1e26-be31-5c1d-bf65-e859e9d0308e-attr-4-name" class="er entityLabel">password</text><rect height="22" width="22.68768310546875" y="90" x="98.97723388671875" class="er attributeBoxEven"/><text style="dominant-baseline: middle; font-size: 10.2px;" transform="translate(103.97723388671875,101)" y="0" x="0" id="text-entity-users-33ae1e26-be31-5c1d-bf65-e859e9d0308e-attr-4-key" class="er entityLabel"/><rect height="22" width="47.21253967285156" y="90" x="121.6649169921875" class="er attributeBoxEven"/><text style="dominant-baseline: middle; font-size: 10.2px;" transform="translate(126.6649169921875,101)" y="0" x="0" id="text-entity-users-33ae1e26-be31-5c1d-bf65-e859e9d0308e-attr-4-comment" class="er entityLabel"/><rect height="22" width="46.649749755859375" y="112" x="0" class="er attributeBoxOdd"/><text style="dominant-baseline: middle; font-size: 10.2px;" transform="translate(5,123)" y="0" x="0" id="text-entity-users-33ae1e26-be31-5c1d-bf65-e859e9d0308e-attr-5-type" class="er entityLabel">String</text><rect height="22" width="52.327484130859375" y="112" x="46.649749755859375" class="er attributeBoxOdd"/><text style="dominant-baseline: middle; font-size: 10.2px;" transform="translate(51.649749755859375,123)" y="0" x="0" id="text-entity-users-33ae1e26-be31-5c1d-bf65-e859e9d0308e-attr-5-name" class="er entityLabel">salt</text><rect height="22" width="22.68768310546875" y="112" x="98.97723388671875" class="er attributeBoxOdd"/><text style="dominant-baseline: middle; font-size: 10.2px;" transform="translate(103.97723388671875,123)" y="0" x="0" id="text-entity-users-33ae1e26-be31-5c1d-bf65-e859e9d0308e-attr-5-key" class="er entityLabel"/><rect height="22" width="47.21253967285156" y="112" x="121.6649169921875" class="er attributeBoxOdd"/><text style="dominant-baseline: middle; font-size: 10.2px;" transform="translate(126.6649169921875,123)" y="0" x="0" id="text-entity-users-33ae1e26-be31-5c1d-bf65-e859e9d0308e-attr-5-comment" class="er entityLabel"/><rect height="22" width="46.649749755859375" y="134" x="0" class="er attributeBoxEven"/><text style="dominant-baseline: middle; font-size: 10.2px;" transform="translate(5,145)" y="0" x="0" id="text-entity-users-33ae1e26-be31-5c1d-bf65-e859e9d0308e-attr-6-type" class="er entityLabel">Boolean</text><rect height="22" width="52.327484130859375" y="134" x="46.649749755859375" class="er attributeBoxEven"/><text style="dominant-baseline: middle; font-size: 10.2px;" transform="translate(51.649749755859375,145)" y="0" x="0" id="text-entity-users-33ae1e26-be31-5c1d-bf65-e859e9d0308e-attr-6-name" class="er entityLabel">verified</text><rect height="22" width="22.68768310546875" y="134" x="98.97723388671875" class="er attributeBoxEven"/><text style="dominant-baseline: middle; font-size: 10.2px;" transform="translate(103.97723388671875,145)" y="0" x="0" id="text-entity-users-33ae1e26-be31-5c1d-bf65-e859e9d0308e-attr-6-key" class="er entityLabel"/><rect height="22" width="47.21253967285156" y="134" x="121.6649169921875" class="er attributeBoxEven"/><text style="dominant-baseline: middle; font-size: 10.2px;" transform="translate(126.6649169921875,145)" y="0" x="0" id="text-entity-users-33ae1e26-be31-5c1d-bf65-e859e9d0308e-attr-6-comment" class="er entityLabel"/></g><g transform="translate(221.78594970703125,634 )" id="entity-DayHabit-5ce25473-23d3-58c3-9cc5-32233c8c58f9"><rect height="75" width="100" y="0" x="0" class="er entityBox"/><text style="dominant-baseline: middle; text-anchor: middle; font-size: 12px;" transform="translate(50,37.5)" y="0" x="0" id="text-entity-DayHabit-5ce25473-23d3-58c3-9cc5-32233c8c58f9" class="er entityLabel">DayHabit</text></g><g transform="translate(59.36602783203125,418.5 )" id="entity-HabitWeekDays-fb0bb2ac-dc87-539a-bfb2-12a56bcecb4e"><rect height="75" width="112.419921875" y="0" x="0" class="er entityBox"/><text style="dominant-baseline: middle; text-anchor: middle; font-size: 12px;" transform="translate(56.2099609375,37.5)" y="0" x="0" id="text-entity-HabitWeekDays-fb0bb2ac-dc87-539a-bfb2-12a56bcecb4e" class="er entityLabel">HabitWeekDays</text></g><g transform="translate(532.0449981689453,634 )" id="entity-Habit-9f611293-fb4e-574e-88c9-ffe07f9dfec7"><rect height="75" width="100" y="0" x="0" class="er entityBox"/><text style="dominant-baseline: middle; text-anchor: middle; font-size: 12px;" transform="translate(50,37.5)" y="0" x="0" id="text-entity-Habit-9f611293-fb4e-574e-88c9-ffe07f9dfec7" class="er entityLabel">Habit</text></g><g transform="translate(732.0449981689453,634 )" id="entity-Day-9ea0cc54-f82e-59e2-b538-e90e302bfc1e"><rect height="75" width="100" y="0" x="0" class="er entityBox"/><text style="dominant-baseline: middle; text-anchor: middle; font-size: 12px;" transform="translate(50,37.5)" y="0" x="0" id="text-entity-Day-9ea0cc54-f82e-59e2-b538-e90e302bfc1e" class="er entityLabel">Day</text></g><rect height="14" width="52.9296875" y="523.2053833007812" x="-57.90181541442871" class="er relationshipLabelBox"/><text style="text-anchor: middle; dominant-baseline: middle; font-size: 12px;" y="530.2053833007812" x="-31.43697166442871" id="rel1" class="er relationshipLabel">dayHabits</text><rect height="14" width="53.654296875" y="341.25" x="88.74884033203125" class="er relationshipLabelBox"/><text style="text-anchor: middle; dominant-baseline: middle; font-size: 12px;" y="348.25" x="115.57598876953125" id="rel2" class="er relationshipLabel">weekDays</text><rect height="14" width="23.958984375" y="303.4674072265625" x="335.4485168457031" class="er relationshipLabelBox"/><text style="text-anchor: middle; dominant-baseline: middle; font-size: 12px;" y="310.4674072265625" x="347.4280090332031" id="rel3" class="er relationshipLabel">user</text><rect height="14" width="27.96875" y="132.04776000976562" x="70.37615966796875" class="er relationshipLabelBox"/><text style="text-anchor: middle; dominant-baseline: middle; font-size: 12px;" y="139.04776000976562" x="84.36053466796875" id="rel4" class="er relationshipLabel">habit</text><rect height="14" width="52.9296875" y="427.3153381347656" x="245.39120483398438" class="er relationshipLabelBox"/><text style="text-anchor: middle; dominant-baseline: middle; font-size: 12px;" y="434.3153381347656" x="271.8560485839844" id="rel5" class="er relationshipLabel">dayHabits</text><rect height="14" width="23.958984375" y="301.3451843261719" x="520.4752197265625" class="er relationshipLabelBox"/><text style="text-anchor: middle; dominant-baseline: middle; font-size: 12px;" y="308.3451843261719" x="532.4547119140625" id="rel6" class="er relationshipLabel">user</text><rect height="14" width="19.990234375" y="131" x="395.0826110839844" class="er relationshipLabelBox"/><text style="text-anchor: middle; dominant-baseline: middle; font-size: 12px;" y="138" x="405.0777282714844" id="rel7" class="er relationshipLabel">day</text><rect height="14" width="27.96875" y="121.87525939941406" x="254.26864624023438" class="er relationshipLabelBox"/><text style="text-anchor: middle; dominant-baseline: middle; font-size: 12px;" y="128.87525939941406" x="268.2530212402344" id="rel8" class="er relationshipLabel">habit</text><rect height="14" width="23.958984375" y="149.81629943847656" x="663.7987670898438" class="er relationshipLabelBox"/><text style="text-anchor: middle; dominant-baseline: middle; font-size: 12px;" y="156.81629943847656" x="675.7782592773438" id="rel9" class="er relationshipLabel">user</text><rect height="14" width="29.263671875" y="577" x="567.4131469726562" class="er relationshipLabelBox"/><text style="text-anchor: middle; dominant-baseline: middle; font-size: 12px;" y="584" x="582.0449829101562" id="rel10" class="er relationshipLabel">Habit</text><rect height="14" width="48.845703125" y="572.1931762695312" x="386.183349609375" class="er relationshipLabelBox"/><text style="text-anchor: middle; dominant-baseline: middle; font-size: 12px;" y="579.1931762695312" x="410.606201171875" id="rel11" class="er relationshipLabel">DayHabit</text><rect height="14" width="20.6640625" y="553.0670166015625" x="730.0571899414062" class="er relationshipLabelBox"/><text style="text-anchor: middle; dominant-baseline: middle; font-size: 12px;" y="560.0670166015625" x="740.3892211914062" id="rel12" class="er relationshipLabel">Day</text></svg>